<svg xmlns="http://www.w3.org/2000/svg" viewBox="0 0 800 500"><defs><style>.cls-1{fill:#412c1a;}.cls-2{fill:#662d0a;}.cls-3{fill:#aa8674;}.cls-4{fill:#237fde;}.cls-5{fill:#006b5e;}.cls-6{fill:#659b91;}.cls-7{fill:#c4fcf1;}.cls-8{fill:#47c7a1;}.cls-9{fill:#f0e8d1;}.cls-10{fill:#f7e018;}</style></defs><title>dropFile</title><g id="background"><rect class="cls-1" width="800" height="500"/></g><g id="innerbg"><rect class="cls-2" x="32" y="31" width="737" height="438"/></g><g id="library"><rect id="upbook" class="cls-3" x="218" y="273" width="363" height="146"/><rect id="upbook-2" data-name="upbook" class="cls-4" x="286.47" y="290" width="10.8" height="47"/><rect id="upbook-3" data-name="upbook" class="cls-5" x="276.47" y="290" width="10.8" height="47"/><rect id="upbook-4" data-name="upbook" class="cls-6" x="266" y="290" width="11.11" height="47"/><rect id="upbook-5" data-name="upbook" class="cls-7" x="256" y="290" width="10.49" height="47"/><rect id="upbook-6" data-name="upbook" class="cls-8" x="245.69" y="290" width="10.8" height="47"/><rect id="upbook-7" data-name="upbook" class="cls-5" x="234.69" y="290" width="10.8" height="47"/><rect id="upbook-8" data-name="upbook" class="cls-4" x="224" y="290" width="10.8" height="46.57"/><rect id="downbook" class="cls-4" x="564.29" y="364.59" width="10.8" height="47.41"/><rect id="downbook-2" data-name="downbook" class="cls-5" x="554.29" y="364.59" width="10.8" height="47.41"/><rect id="downbook-3" data-name="downbook" class="cls-6" x="543.82" y="364.59" width="11.11" height="47.41"/><rect id="downbook-4" data-name="downbook" class="cls-7" x="528.82" y="364.59" width="10.49" height="47.41" transform="translate(92.36 -102.51) rotate(11.99)"/><rect id="shelf" class="cls-9" x="393.2" y="231.2" width="12.6" height="375" transform="translate(818.2 19.2) rotate(90)"/><rect id="shelf-2" data-name="shelf" class="cls-9" x="575" y="273" width="12" height="140"/><rect id="shelf-3" data-name="shelf" class="cls-9" x="393.26" y="167.26" width="12.47" height="351" transform="translate(742.26 -56.74) rotate(90)"/><rect id="shelf-4" data-name="shelf" class="cls-9" x="212" y="273" width="12" height="140"/><rect id="shelf-5" data-name="shelf" class="cls-9" x="393.22" y="85.22" width="12.56" height="375" transform="translate(672.22 -126.78) rotate(90)"/></g><g id="text"><path d="M97.49,207.07v-86h21.16c6.81,0,12,1.88,15.49,5.6s5.19,9.13,5.19,16.16v42.48c0,7-1.75,12.46-5.19,16.16s-8.67,5.6-15.49,5.6Zm20.92-14a5.39,5.39,0,0,0,4.24-1.59c1-1.09,1.48-3,1.48-5.57V142.23c0-2.61-.5-4.48-1.48-5.57a5.41,5.41,0,0,0-4.24-1.59h-5.72v58Z"/><path d="M173.74,207.07l-.24-.67a19.82,19.82,0,0,1-1-4,56.91,56.91,0,0,1-.25-6.61V180.39c0-3.59-.55-6.08-1.64-7.41s-2.93-1.91-5.64-1.91h-3.56v36h-15.2v-86h20.56c7,0,12.29,1.69,15.59,5s5,8.49,5,15.29v5.16c0,8.16-2.5,13.73-7.42,16.58a11.2,11.2,0,0,1,5.47,5.69c1.37,3.08,2.07,7.21,2.07,12.29v14.76c0,2.36.08,4.28.23,5.71a13.88,13.88,0,0,0,1.12,4.08l.63,1.41Zm-8.53-50c2.34,0,4.1-.59,5.22-1.74s1.7-3.23,1.7-6.14v-6.48c0-2.8-.48-4.81-1.41-6s-2.3-1.66-4.31-1.66h-5v22Z"/><path d="M214.65,208.27c-6.74,0-12-2-15.61-5.84s-5.43-9.33-5.43-16.28V142c0-7,1.82-12.43,5.43-16.29s8.87-5.83,15.61-5.83,12,2,15.61,5.83,5.43,9.34,5.43,16.29v44.16c0,6.95-1.83,12.43-5.43,16.28S221.38,208.27,214.65,208.27Zm0-74.4c-2.51,0-5.84.75-5.84,7.28V187c0,6.52,3.33,7.28,5.84,7.28s5.84-.76,5.84-7.28V141.15C220.49,134.62,217.15,133.87,214.65,133.87Z"/><path d="M242.57,207.07v-86H263c6.81,0,12,1.88,15.49,5.6s5.19,9.13,5.19,16.16v8.28c0,7-1.75,12.46-5.19,16.16s-8.68,5.6-15.49,5.6h-5.24v34.2ZM263,158.87a5.21,5.21,0,0,0,4.11-1.47c.91-1,1.37-2.84,1.37-5.45V142c0-2.61-.46-4.45-1.37-5.45a5.21,5.21,0,0,0-4.11-1.47h-5.24v23.8Z"/><polygon points="308.08 207.07 308.08 121.07 345 121.07 345 135.07 323.28 135.07 323.28 156.47 340.32 156.47 340.32 170.47 323.28 170.47 323.28 207.07 308.08 207.07"/><rect x="349.36" y="121.07" width="15.2" height="86"/><polygon points="372.4 207.07 372.4 121.07 387.6 121.07 387.6 193.07 409.32 193.07 409.32 207.07 372.4 207.07"/><polygon points="413.68 207.07 413.68 121.07 451.68 121.07 451.68 135.07 428.88 135.07 428.88 155.27 447 155.27 447 169.27 428.88 169.27 428.88 193.07 451.68 193.07 451.68 207.07 413.68 207.07"/><path d="M475.64,208.27c-6.67,0-11.8-2-15.26-5.79s-5.18-9.31-5.18-16.33v-5.8h14.48v6.76c0,6.42,3.33,7.16,5.84,7.16a5.46,5.46,0,0,0,4.35-1.64c1-1.13,1.49-3.07,1.49-5.76a16.89,16.89,0,0,0-2.26-8.79c-1.54-2.58-4.46-5.75-8.68-9.42-5.5-4.85-9.41-9.32-11.62-13.29a27.66,27.66,0,0,1-3.36-13.62c0-6.87,1.78-12.29,5.3-16.1s8.72-5.78,15.38-5.78,11.66,1.95,15.09,5.79,5.11,9.31,5.11,16.33v4.48H481.84v-5.32c0-2.63-.49-4.53-1.44-5.66a5.12,5.12,0,0,0-4.16-1.62c-2.41,0-5.6.73-5.6,7a15,15,0,0,0,2.31,8c1.58,2.54,4.52,5.7,8.75,9.37,5.58,4.86,9.49,9.36,11.62,13.37a30.13,30.13,0,0,1,3.24,14.27c0,7.11-1.81,12.66-5.37,16.52S482.38,208.27,475.64,208.27Z"/><polygon points="548.68 207.07 548.68 169.27 536.52 169.27 536.52 207.07 521.32 207.07 521.32 121.07 536.52 121.07 536.52 155.27 548.68 155.27 548.68 121.07 563.88 121.07 563.88 207.07 548.68 207.07"/><polygon points="571.72 207.07 571.72 121.07 609.72 121.07 609.72 135.07 586.92 135.07 586.92 155.27 605.04 155.27 605.04 169.27 586.92 169.27 586.92 193.07 609.72 193.07 609.72 207.07 571.72 207.07"/><path d="M642.81,207.07l-.24-.67a20.56,20.56,0,0,1-1-4,59.46,59.46,0,0,1-.25-6.61V180.39c0-3.59-.55-6.08-1.63-7.41s-2.94-1.91-5.65-1.91h-3.56v36h-15.2v-86h20.56c7,0,12.3,1.69,15.6,5s5,8.49,5,15.29v5.16c0,8.16-2.49,13.73-7.41,16.58a11.2,11.2,0,0,1,5.47,5.69c1.37,3.08,2.06,7.21,2.06,12.29v14.76a53.71,53.71,0,0,0,.24,5.71,13.58,13.58,0,0,0,1.12,4.08l.62,1.41Zm-8.54-50c2.35,0,4.11-.59,5.23-1.74s1.69-3.23,1.69-6.14v-6.48c0-2.8-.47-4.81-1.4-6s-2.3-1.66-4.32-1.66h-5v22Z"/><polygon points="663.63 207.07 663.63 121.07 701.63 121.07 701.63 135.07 678.84 135.07 678.84 155.27 696.96 155.27 696.96 169.27 678.84 169.27 678.84 193.07 701.63 193.07 701.63 207.07 663.63 207.07"/><path class="cls-10" d="M99.49,121.07h20.16q9.84,0,14.76,5.28t4.92,15.48v42.48q0,10.2-4.92,15.48t-14.76,5.28H99.49Zm19.92,72a6.38,6.38,0,0,0,5-1.92q1.74-1.92,1.74-6.24V141.23q0-4.32-1.74-6.24a6.38,6.38,0,0,0-5-1.92h-6.72v60Z"/><path class="cls-10" d="M148.21,121.07h19.56q10.2,0,14.88,4.74t4.68,14.58v5.16q0,13.08-8.64,16.56v.24a10.3,10.3,0,0,1,6.78,5.88q2,4.44,2,11.88v14.76a56.44,56.44,0,0,0,.24,5.82,14.6,14.6,0,0,0,1.2,4.38H175.45a19.24,19.24,0,0,1-1-3.84,57.77,57.77,0,0,1-.24-6.48V179.39q0-5.76-1.86-8T166,169.07h-4.56v36h-13.2Zm18,36q4,0,5.94-2t2-6.84v-6.48q0-4.56-1.62-6.6t-5.1-2h-6v24Z"/><path class="cls-10" d="M200.77,200.75q-5.16-5.52-5.16-15.6V141q0-10.08,5.16-15.6t14.88-5.52q9.72,0,14.88,5.52t5.16,15.6v44.16q0,10.08-5.16,15.6t-14.88,5.52Q205.93,206.27,200.77,200.75ZM222.49,186V140.15q0-8.28-6.84-8.28t-6.84,8.28V186q0,8.28,6.84,8.28T222.49,186Z"/><path class="cls-10" d="M244.57,121.07H264q9.83,0,14.76,5.28t4.92,15.48v8.28q0,10.2-4.92,15.48T264,170.87h-6.24v34.2h-13.2ZM264,158.87a6.21,6.21,0,0,0,4.86-1.8q1.62-1.8,1.62-6.12V141q0-4.32-1.62-6.12a6.21,6.21,0,0,0-4.86-1.8h-6.24v25.8Z"/><path class="cls-10" d="M310.08,121.07H345v12H323.28v23.4h17v12h-17v36.6h-13.2Z"/><path class="cls-10" d="M351.36,121.07h13.2v84h-13.2Z"/><path class="cls-10" d="M374.4,121.07h13.2v72h21.72v12H374.4Z"/><path class="cls-10" d="M415.68,121.07h36v12h-22.8v22.2H447v12H428.88v25.8h22.8v12h-36Z"/><path class="cls-10" d="M462.12,200.81q-4.92-5.46-4.92-15.66v-4.8h12.48v5.76q0,8.16,6.84,8.16a6.43,6.43,0,0,0,5.1-2q1.74-2,1.74-6.42a17.79,17.79,0,0,0-2.4-9.3q-2.4-4-8.88-9.66-8.16-7.2-11.4-13a26.55,26.55,0,0,1-3.24-13.14q0-10,5-15.42t14.64-5.46q9.48,0,14.34,5.46T496.32,141v3.48H483.84v-4.32q0-4.32-1.68-6.3a6.09,6.09,0,0,0-4.92-2q-6.6,0-6.6,8a15.86,15.86,0,0,0,2.46,8.52q2.46,4,8.94,9.6,8.28,7.2,11.4,13.08a29,29,0,0,1,3.12,13.8q0,10.32-5.1,15.84t-14.82,5.52Q467,206.27,462.12,200.81Z"/><path class="cls-10" d="M523.32,121.07h13.2v34.2h14.16v-34.2h13.2v84h-13.2v-37.8H536.52v37.8h-13.2Z"/><path class="cls-10" d="M573.72,121.07h36v12h-22.8v22.2H605v12H586.92v25.8h22.8v12h-36Z"/><path class="cls-10" d="M617.27,121.07h19.56q10.2,0,14.88,4.74t4.68,14.58v5.16q0,13.08-8.64,16.56v.24a10.3,10.3,0,0,1,6.78,5.88q2,4.44,2,11.88v14.76a56.44,56.44,0,0,0,.24,5.82,14.6,14.6,0,0,0,1.2,4.38H644.51a19.24,19.24,0,0,1-1-3.84,57.77,57.77,0,0,1-.24-6.48V179.39q0-5.76-1.86-8T635,169.07h-4.56v36h-13.2Zm18,36q4,0,5.94-2t2-6.84v-6.48q0-4.56-1.62-6.6t-5.1-2h-6v24Z"/><path class="cls-10" d="M665.63,121.07h36v12h-22.8v22.2H697v12H678.83v25.8h22.8v12h-36Z"/></g></svg>