<svg xmlns="http://www.w3.org/2000/svg" viewBox="0 0 800 500"><defs><style>.cls-1{fill:#2f4858;}.cls-2{fill:#678985;}.cls-3{fill:#f7e018;}.cls-4{fill:#fff;}</style></defs><title>error</title><g id="background"><rect class="cls-1" width="800" height="500"/></g><g id="innerbg"><rect class="cls-2" x="31" y="31" width="738" height="438"/></g><g id="text"><path d="M264.89,192.68c-6.71,0-11.93-2-15.5-5.82s-5.34-9.39-5.34-16.47V104.77h15.31v66.58c0,2.64.5,4.53,1.49,5.62a6.51,6.51,0,0,0,8.56,0c1-1.1,1.5-3,1.5-5.63V104.77h14.83v65.62c0,7.08-1.8,12.62-5.35,16.47S271.61,192.68,264.89,192.68Z"/><polygon points="323.31 191.47 312.57 155.44 308.48 163.72 308.48 191.47 293.17 191.47 293.17 104.77 308.48 104.77 308.48 137.03 323.79 104.77 339.37 104.77 322.95 136.97 339.32 191.47 323.31 191.47"/><polygon points="371.56 191.47 357.12 135.57 357.12 191.47 343.26 191.47 343.26 104.77 361.74 104.77 373.15 149.46 373.15 104.77 387.01 104.77 387.01 191.47 371.56 191.47"/><path d="M415.17,192.68c-6.79,0-12.09-2-15.74-5.88S394,177.4,394,170.39V125.86c0-7,1.84-12.53,5.47-16.41s8.95-5.89,15.74-5.89,12.08,2,15.73,5.89,5.48,9.41,5.48,16.41v44.53c0,7-1.84,12.52-5.48,16.41S422,192.68,415.17,192.68Zm0-75c-2.53,0-5.9.76-5.9,7.35v46.22c0,6.59,3.37,7.35,5.9,7.35s5.9-.76,5.9-7.35V125C421.07,118.42,417.7,117.66,415.17,117.66Z"/><polygon points="478.88 191.47 473.61 141.71 468.34 191.47 448.87 191.47 440.08 104.77 454.92 104.77 460.08 161.46 465.56 104.77 481.9 104.77 487.38 161.46 492.54 104.77 506.06 104.77 497.26 191.47 478.88 191.47"/><polygon points="539.02 191.47 524.58 135.58 524.58 191.47 510.73 191.47 510.73 104.77 529.2 104.77 540.61 149.46 540.61 104.77 554.47 104.77 554.47 191.47 539.02 191.47"/><polygon points="227.17 336.67 227.17 249.97 264.38 249.97 264.38 264.07 242.48 264.07 242.48 285.67 259.66 285.67 259.66 299.77 242.48 299.77 242.48 336.67 227.17 336.67"/><rect x="268.79" y="249.97" width="15.31" height="86.7"/><polygon points="292.02 336.67 292.02 249.97 307.33 249.97 307.33 322.57 329.23 322.57 329.23 336.67 292.02 336.67"/><polygon points="333.65 336.67 333.65 249.97 371.95 249.97 371.95 264.07 348.96 264.07 348.96 284.46 367.23 284.46 367.23 298.56 348.96 298.56 348.96 322.57 371.95 322.57 371.95 336.67 333.65 336.67"/><polygon points="407.33 336.67 407.33 264.07 393.42 264.07 393.42 249.97 436.56 249.97 436.56 264.07 422.64 264.07 422.64 336.67 407.33 336.67"/><polygon points="453.67 336.67 453.67 299.78 437.2 249.97 453.49 249.97 461.94 278.92 470.38 249.97 485.46 249.97 468.98 299.78 468.98 336.67 453.67 336.67"/><path d="M489.13,336.67V250h20.6c6.87,0,12.12,1.9,15.61,5.65s5.23,9.2,5.23,16.29v8.34c0,7.09-1.76,12.57-5.23,16.3s-8.74,5.64-15.61,5.64h-5.29v34.48Zm20.6-48.58a5.28,5.28,0,0,0,4.16-1.49c.91-1,1.37-2.86,1.37-5.5v-10c0-2.64-.46-4.49-1.37-5.5a5.28,5.28,0,0,0-4.16-1.49h-5.29v24Z"/><polygon points="535.83 336.67 535.83 249.97 574.13 249.97 574.13 264.07 551.14 264.07 551.14 284.46 569.41 284.46 569.41 298.56 551.14 298.56 551.14 322.57 574.13 322.57 574.13 336.67 535.83 336.67"/><path class="cls-3" d="M251.13,185.18q-5.08-5.51-5.08-15.79V104.77h13.31v65.58q0,4.36,1.75,6.3a7.49,7.49,0,0,0,10,0q1.75-1.93,1.76-6.3V104.77h12.83v64.62q0,10.28-5.09,15.79t-14.76,5.5Q256.22,190.68,251.13,185.18Z"/><path class="cls-3" d="M295.17,104.77h13.31v35.7l16.94-35.7h13.31l-15.85,31.1L339,189.47H325.06l-11.25-37.75-5.33,10.77v27H295.17Z"/><path class="cls-3" d="M345.26,104.77H362l13,50.7h.24v-50.7H387v84.7H373.34l-16-61.83h-.24v61.83H345.26Z"/><path class="cls-3" d="M401.17,185.12Q396,179.56,396,169.39V124.86q0-10.17,5.21-15.73t15-5.57q9.79,0,15,5.57t5.21,15.73v44.53q0,10.16-5.21,15.73t-15,5.56Q406.36,190.68,401.17,185.12Zm21.9-14.89V124q0-8.34-6.9-8.35t-6.9,8.35v46.22q0,8.36,6.9,8.35T423.07,170.23Z"/><path class="cls-3" d="M442.18,104.77H455l5.93,65.1h.24l6.29-65.1H482l6.29,65.1h.25l5.93-65.1H506l-8.59,84.7H480.78l-6-57.11h-.24l-6.05,57.11H450.77Z"/><path class="cls-3" d="M512.72,104.77h16.7l13,50.7h.24v-50.7h11.86v84.7H540.8l-16-61.83h-.24v61.83H512.72Z"/><path class="cls-3" d="M229.17,250h35.21v12.1h-21.9v23.6h17.18v12.1H242.48v36.9H229.17Z"/><path class="cls-3" d="M270.79,250H284.1v84.7H270.79Z"/><path class="cls-3" d="M294,250h13.31v72.6h21.9v12.1H294Z"/><path class="cls-3" d="M335.65,250H372v12.1H349v22.39h18.27v12.1H349v26h23v12.1h-36.3Z"/><path class="cls-3" d="M409.33,262.07H395.42V250h41.14v12.1H422.64v72.6H409.33Z"/><path class="cls-3" d="M455.67,298.62,439.58,250h14.16l9.07,31.1h.25l9.07-31.1h12.95L469,298.62v36.05H455.67Z"/><path class="cls-3" d="M491.13,250h19.6q9.91,0,14.88,5.33t5,15.61v8.34q0,10.29-5,15.61t-14.88,5.33h-6.29v34.48H491.13Zm19.6,38.12a6.26,6.26,0,0,0,4.9-1.82c1.09-1.21,1.63-3.26,1.63-6.17v-10q0-4.35-1.63-6.17a6.26,6.26,0,0,0-4.9-1.82h-6.29v26Z"/><path class="cls-3" d="M537.83,250h36.3v12.1h-23v22.39h18.27v12.1H551.14v26h23v12.1h-36.3Z"/><path class="cls-4" d="M314.85,375.68H308v-6h20.4v6h-6.9v36h-6.6Z"/><path class="cls-4" d="M331.53,369.68h9.78q5.1,0,7.44,2.37t2.34,7.29v2.58q0,6.54-4.32,8.28v.12a5.15,5.15,0,0,1,3.39,2.94,14.8,14.8,0,0,1,1,5.94v7.38a28.22,28.22,0,0,0,.12,2.91,7.3,7.3,0,0,0,.6,2.19h-6.72a9.62,9.62,0,0,1-.48-1.92,28.88,28.88,0,0,1-.12-3.24v-7.68a6.52,6.52,0,0,0-.93-4,3.93,3.93,0,0,0-3.21-1.14h-2.28v18h-6.6Zm9,18a4,4,0,0,0,3-1,4.82,4.82,0,0,0,1-3.42V380a5.33,5.33,0,0,0-.81-3.3,3.06,3.06,0,0,0-2.55-1h-3v12Z"/><path class="cls-4" d="M360.81,393.8l-8-24.12h7l4.5,15.42h.12l4.5-15.42h6.42l-8,24.12v17.88h-6.6Z"/><path class="cls-4" d="M393.09,369.68H402l6.84,42h-6.6l-1.2-8.34v.12h-7.5l-1.2,8.22h-6.12Zm7.2,28.08L397.35,377h-.12l-2.88,20.76Z"/><path class="cls-4" d="M414,409.55q-2.52-2.73-2.52-7.83V379.64q0-5.1,2.52-7.83t7.32-2.73q4.8,0,7.32,2.73t2.52,7.83v3.6h-6.24v-4q0-4.14-3.42-4.14t-3.42,4.14v23q0,4.08,3.42,4.08t3.42-4.08V394h-3.3v-6h9.54v13.74q0,5.1-2.52,7.83t-7.32,2.73Q416.49,412.28,414,409.55Z"/><path class="cls-4" d="M440.49,369.68h8.94l6.84,42h-6.6l-1.2-8.34v.12H441l-1.2,8.22h-6.12Zm7.2,28.08L444.75,377h-.12l-2.88,20.76Z"/><path class="cls-4" d="M459.45,369.68h6.6v42h-6.6Z"/><path class="cls-4" d="M471,369.68h8.28l6.42,25.14h.12V369.68h5.88v42h-6.78L477,381h-.12v30.66H471Z"/></g></svg>